<?xml version="1.0" encoding="iso-8859-1"?>
<!-- Generator: Adobe Illustrator 19.0.0, SVG Export Plug-In . SVG Version: 6.00 Build 0)  -->
<svg version="1.1" id="Capa_1" xmlns="http://www.w3.org/2000/svg" xmlns:xlink="http://www.w3.org/1999/xlink" x="0px" y="0px"
	 viewBox="0 0 512 512" style="enable-background:new 0 0 512 512;" xml:space="preserve">
<g>
	<rect x="185.379" y="418.957" style="fill:#95A5A5;" width="141.241" height="80.066"/>
	<path style="fill:#BDC3C7;" d="M476.69,79.448H35.31c-9.366-0.003-18.349,3.717-24.971,10.339S-0.003,105.393,0,114.758v291.31
		c-0.003,9.366,3.717,18.348,10.339,24.971c6.623,6.622,15.605,10.342,24.971,10.339H476.69c9.366,0.003,18.348-3.717,24.971-10.339
		c6.622-6.623,10.342-15.605,10.339-24.971v-291.31c0.003-9.366-3.717-18.349-10.339-24.971
		C495.038,83.165,486.055,79.446,476.69,79.448z"/>
	<path style="fill:#35495E;" d="M512,370.758v-256c0.003-9.366-3.717-18.348-10.339-24.971
		c-6.623-6.623-15.605-10.342-24.971-10.339H35.31c-9.366-0.003-18.348,3.717-24.971,10.339S-0.003,105.393,0,114.758l0,256H512z"/>
	<g>
		<path style="fill:#BDC3C7;" d="M123.586,476.69h264.828c4.875,0,8.828,3.952,8.828,8.828v17.655c0,4.875-3.952,8.828-8.828,8.828
			H123.586c-4.875,0-8.828-3.952-8.828-8.828v-17.655C114.759,480.642,118.711,476.69,123.586,476.69z"/>
		<path style="fill:#BDC3C7;" d="M439.438,158.896h-35.752c-1.418-8.326-3.575-16.509-6.444-24.452l30.897-17.92
			c-6.547-16.481-15.469-31.916-26.483-45.815l-30.985,17.92c-5.432-6.491-11.429-12.488-17.92-17.92l17.92-30.985
			c-13.899-11.013-29.334-19.935-45.815-26.483l-17.92,30.897c-7.943-2.869-16.127-5.026-24.452-6.444V1.942
			c-17.56-2.589-35.405-2.589-52.966,0v35.752c-8.326,1.418-16.509,3.575-24.452,6.444l-17.92-30.897
			c-16.481,6.547-31.916,15.469-45.815,26.483l17.92,30.985c-6.491,5.432-12.488,11.429-17.92,17.92l-30.985-17.92
			c-11.014,13.899-19.935,29.334-26.483,45.815l30.897,17.92c-2.87,7.943-5.026,16.127-6.444,24.452H72.562
			c-1.318,8.766-1.967,17.619-1.943,26.483h70.622C141.241,122,192.62,70.621,256,70.621S370.759,122,370.759,185.379h70.622
			C441.405,176.515,440.756,167.662,439.438,158.896z"/>
	</g>
	<path style="fill:#4482C3;" d="M158.897,282.483c0.004,19.538-10.751,37.492-27.98,46.706c-17.229,9.215-38.132,8.193-54.381-2.657
		l29.396-44.05l52.171-8.739C158.637,276.626,158.903,279.551,158.897,282.483z"/>
	<path style="fill:#F0C419;" d="M105.931,229.517v52.966l-29.396,44.05c-19.413-12.95-28.061-37.08-21.294-59.413
		C62.008,244.786,82.595,229.514,105.931,229.517z"/>
	<g>
		<path style="fill:#E64C3C;" d="M158.102,273.743l-52.171,8.739v-52.966C131.787,229.545,153.841,248.241,158.102,273.743z"/>
		<rect x="264.828" y="229.517" style="fill:#E64C3C;" width="194.207" height="35.31"/>
	</g>
	<rect x="203.034" y="264.827" style="fill:#95A5A5;" width="61.793" height="70.621"/>
	<rect x="203.034" y="229.517" style="fill:#BDC3C7;" width="61.793" height="35.31"/>
	<rect x="264.828" y="264.827" style="fill:#E6E7E8;" width="194.207" height="70.621"/>
	<g>
		<path style="fill:#95A5A5;" d="M317.793,308.965h-17.655c-4.875,0-8.828-3.952-8.828-8.828c0-4.875,3.952-8.828,8.828-8.828
			h17.655c4.875,0,8.828,3.952,8.828,8.828C326.621,305.013,322.668,308.965,317.793,308.965z"/>
		<path style="fill:#95A5A5;" d="M370.759,308.965h-17.655c-4.875,0-8.828-3.952-8.828-8.828c0-4.875,3.952-8.828,8.828-8.828
			h17.655c4.875,0,8.828,3.952,8.828,8.828C379.586,305.013,375.634,308.965,370.759,308.965z"/>
		<path style="fill:#95A5A5;" d="M423.724,308.965h-17.655c-4.875,0-8.828-3.952-8.828-8.828c0-4.875,3.952-8.828,8.828-8.828
			h17.655c4.875,0,8.828,3.952,8.828,8.828C432.552,305.013,428.599,308.965,423.724,308.965z"/>
	</g>
	<path style="fill:#7F8C8D;" d="M370.759,185.379H141.241C141.241,122,192.621,70.621,256,70.621S370.759,122,370.759,185.379z"/>
	<path style="fill:#95A5A5;" d="M459.034,194.207H52.966c-4.875,0-8.828-3.952-8.828-8.828s3.952-8.828,8.828-8.828h406.069
		c4.875,0,8.828,3.952,8.828,8.828S463.91,194.207,459.034,194.207z"/>
</g>
</svg>
