<svg version="1.1" xmlns="http://www.w3.org/2000/svg" xmlns:xlink="http://www.w3.org/1999/xlink" width="716" height="220"><defs/><g><g transform="translate(-54,-22) scale(1,1)"><path fill="#C0C0C0" stroke="none" d="M 71 49 L 404 49 L 404 238 L 71 238" opacity="0.2"/></g><g transform="translate(-54,-22) scale(1,1)"><path fill="#C0C0C0" stroke="none" d="M 71 49 L 81 39 L 414 39 L 404 49" opacity="0.2"/></g><g transform="translate(-54,-22) scale(1,1)"><path fill="#C0C0C0" stroke="none" d="M 414 39 L 404 49 L 404 238 L 414 228" opacity="0.2"/></g><g transform="translate(-54,-22) scale(1,1)"><path fill="#ffffff" stroke="none" d="M 64 42 L 397 42 L 397 231 L 64 231"/></g><g transform="translate(-54,-22) scale(1,1)"><path fill="#ffffff" stroke="none" d="M 64 42 L 74 32 L 407 32 L 397 42"/></g><g transform="translate(-54,-22) scale(1,1)"><path fill="#ffffff" stroke="none" d="M 407 32 L 397 42 L 397 231 L 407 221"/></g><g transform="translate(-54,-22) scale(1,1)"><path fill="none" stroke="#000000" d="M 64 42 L 397 42 L 397 231 L 64 231 L 64 42" stroke-miterlimit="10"/></g><g transform="translate(-54,-22) scale(1,1)"><path fill="none" stroke="#000000" d="M 64 42 L 74 32 L 407 32 L 397 42 L 64 42" stroke-miterlimit="10"/></g><g transform="translate(-54,-22) scale(1,1)"><path fill="none" stroke="#000000" d="M 407 32 L 397 42 L 397 231 L 407 221 L 407 32" stroke-miterlimit="10"/></g><g transform="translate(-54,-22) scale(1,1)"><g><path fill="none" stroke="none"/><text fill="#000000" stroke="none" font-family="Arial" font-size="13px" font-style="normal" font-weight="bold" text-decoration="none" x="214.3818359375" y="61.5">Client</text></g></g><g transform="translate(-54,-22) scale(1,1)"><path fill="#C0C0C0" stroke="none" d="M 567 57 L 756 57 L 756 166 L 567 166" opacity="0.2"/></g><g transform="translate(-54,-22) scale(1,1)"><path fill="#C0C0C0" stroke="none" d="M 567 57 L 577 47 L 766 47 L 756 57" opacity="0.2"/></g><g transform="translate(-54,-22) scale(1,1)"><path fill="#C0C0C0" stroke="none" d="M 766 47 L 756 57 L 756 166 L 766 156" opacity="0.2"/></g><g transform="translate(-54,-22) scale(1,1)"><path fill="#ffffff" stroke="none" d="M 560 50 L 749 50 L 749 159 L 560 159"/></g><g transform="translate(-54,-22) scale(1,1)"><path fill="#ffffff" stroke="none" d="M 560 50 L 570 40 L 759 40 L 749 50"/></g><g transform="translate(-54,-22) scale(1,1)"><path fill="#ffffff" stroke="none" d="M 759 40 L 749 50 L 749 159 L 759 149"/></g><g transform="translate(-54,-22) scale(1,1)"><path fill="none" stroke="#000000" d="M 560 50 L 749 50 L 749 159 L 560 159 L 560 50" stroke-miterlimit="10"/></g><g transform="translate(-54,-22) scale(1,1)"><path fill="none" stroke="#000000" d="M 560 50 L 570 40 L 759 40 L 749 50 L 560 50" stroke-miterlimit="10"/></g><g transform="translate(-54,-22) scale(1,1)"><path fill="none" stroke="#000000" d="M 759 40 L 749 50 L 749 159 L 759 149 L 759 40" stroke-miterlimit="10"/></g><g transform="translate(-54,-22) scale(1,1)"><g><path fill="none" stroke="none"/><text fill="#000000" stroke="none" font-family="Arial" font-size="13px" font-style="normal" font-weight="bold" text-decoration="none" x="620.6845703125" y="69.5">Web Server</text></g></g><g transform="translate(-54,-22) scale(1,1)"><rect fill="#C0C0C0" stroke="none" x="609" y="87" width="102" height="44" opacity="0.2"/></g><g transform="translate(-54,-22) scale(1,1)"><rect fill="#ffffff" stroke="none" x="602" y="80" width="102" height="44"/></g><g transform="translate(-54,-22) scale(1,1)"><path fill="none" stroke="#000000" d="M 602 80 L 704 80 L 704 124 L 602 124 L 602 80 Z Z" stroke-miterlimit="10"/></g><g transform="translate(-54,-22) scale(1,1)"><rect fill="#ffffff" stroke="none" x="592" y="87" width="20" height="10"/></g><g transform="translate(-54,-22) scale(1,1)"><path fill="none" stroke="#000000" d="M 592 87 L 612 87 L 612 97 L 592 97 L 592 87 Z Z" stroke-miterlimit="10"/></g><g transform="translate(-54,-22) scale(1,1)"><rect fill="#ffffff" stroke="none" x="592" y="107" width="20" height="10"/></g><g transform="translate(-54,-22) scale(1,1)"><path fill="none" stroke="#000000" d="M 592 107 L 612 107 L 612 117 L 592 117 L 592 107 Z Z" stroke-miterlimit="10"/></g><g transform="translate(-54,-22) scale(1,1)"><g><path fill="none" stroke="none"/><text fill="#000000" stroke="none" font-family="Arial" font-size="13px" font-style="normal" font-weight="bold" text-decoration="none" x="626.563232421875" y="99.5">StaticPage</text></g></g><g transform="translate(-54,-22) scale(1,1)"><rect fill="#C0C0C0" stroke="none" x="97" y="87" width="294" height="136" opacity="0.2"/></g><g transform="translate(-54,-22) scale(1,1)"><rect fill="#ffffff" stroke="none" x="90" y="80" width="294" height="136"/></g><g transform="translate(-54,-22) scale(1,1)"><path fill="none" stroke="#000000" d="M 90 80 L 384 80 L 384 216 L 90 216 L 90 80 Z Z" stroke-miterlimit="10"/></g><g transform="translate(-54,-22) scale(1,1)"><rect fill="#ffffff" stroke="none" x="80" y="87" width="20" height="10"/></g><g transform="translate(-54,-22) scale(1,1)"><path fill="none" stroke="#000000" d="M 80 87 L 100 87 L 100 97 L 80 97 L 80 87 Z Z" stroke-miterlimit="10"/></g><g transform="translate(-54,-22) scale(1,1)"><rect fill="#ffffff" stroke="none" x="80" y="107" width="20" height="10"/></g><g transform="translate(-54,-22) scale(1,1)"><path fill="none" stroke="#000000" d="M 80 107 L 100 107 L 100 117 L 80 117 L 80 107 Z Z" stroke-miterlimit="10"/></g><g transform="translate(-54,-22) scale(1,1)"><g><path fill="none" stroke="none"/><text fill="#000000" stroke="none" font-family="Arial" font-size="13px" font-style="normal" font-weight="bold" text-decoration="none" x="201.905029296875" y="99.5">OpenFin Rvm</text></g></g><g transform="translate(-54,-22) scale(1,1)"><rect fill="#C0C0C0" stroke="none" x="129" y="119" width="237.1435546875" height="44" opacity="0.2"/></g><g transform="translate(-54,-22) scale(1,1)"><rect fill="#ffffff" stroke="none" x="122" y="112" width="237.1435546875" height="44"/></g><g transform="translate(-54,-22) scale(1,1)"><path fill="none" stroke="#000000" d="M 122 112 L 359.1435546875 112 L 359.1435546875 156 L 122 156 L 122 112 Z Z" stroke-miterlimit="10"/></g><g transform="translate(-54,-22) scale(1,1)"><rect fill="#ffffff" stroke="none" x="112" y="119" width="20" height="10"/></g><g transform="translate(-54,-22) scale(1,1)"><path fill="none" stroke="#000000" d="M 112 119 L 132 119 L 132 129 L 112 129 L 112 119 Z Z" stroke-miterlimit="10"/></g><g transform="translate(-54,-22) scale(1,1)"><rect fill="#ffffff" stroke="none" x="112" y="139" width="20" height="10"/></g><g transform="translate(-54,-22) scale(1,1)"><path fill="none" stroke="#000000" d="M 112 139 L 132 139 L 132 149 L 112 149 L 112 139 Z Z" stroke-miterlimit="10"/></g><g transform="translate(-54,-22) scale(1,1)"><g><path fill="none" stroke="none"/><text fill="#000000" stroke="none" font-family="Arial" font-size="13px" font-style="normal" font-weight="bold" text-decoration="none" x="143.326904296875" y="131.5">Embedded Browser Based Window</text></g></g><g transform="translate(-54,-22) scale(1,1)"><rect fill="#C0C0C0" stroke="none" x="129" y="167" width="238" height="44" opacity="0.2"/></g><g transform="translate(-54,-22) scale(1,1)"><rect fill="#ffffff" stroke="none" x="122" y="160" width="238" height="44"/></g><g transform="translate(-54,-22) scale(1,1)"><path fill="none" stroke="#000000" d="M 122 160 L 360 160 L 360 204 L 122 204 L 122 160 Z Z" stroke-miterlimit="10"/></g><g transform="translate(-54,-22) scale(1,1)"><rect fill="#ffffff" stroke="none" x="112" y="167" width="20" height="10"/></g><g transform="translate(-54,-22) scale(1,1)"><path fill="none" stroke="#000000" d="M 112 167 L 132 167 L 132 177 L 112 177 L 112 167 Z Z" stroke-miterlimit="10"/></g><g transform="translate(-54,-22) scale(1,1)"><rect fill="#ffffff" stroke="none" x="112" y="187" width="20" height="10"/></g><g transform="translate(-54,-22) scale(1,1)"><path fill="none" stroke="#000000" d="M 112 187 L 132 187 L 132 197 L 112 197 L 112 187 Z Z" stroke-miterlimit="10"/></g><g transform="translate(-54,-22) scale(1,1)"><g><path fill="none" stroke="none"/><text fill="#000000" stroke="none" font-family="Arial" font-size="13px" font-style="normal" font-weight="bold" text-decoration="none" x="143.755126953125" y="179.5">Embedded Browser Based Window</text></g></g><g transform="translate(-54,-22) scale(1,1)"><path fill="none" stroke="#000000" d="M 385 131 L 591 108" stroke-miterlimit="10" stroke-dasharray="3"/></g><g transform="translate(-54,-22) scale(1,1)"><path fill="none" stroke="#000000" d="M 581.3671744736387 113.31118370786406 L 591 108 L 580.4329897323648 104.94413776428118" stroke-miterlimit="10"/></g><g transform="translate(-54,-22) scale(1,1)"><path fill="#ffffff" stroke="none" d="M 432 144 L 520.16455078125 144 L 530.16455078125 154 L 530.16455078125 175 L 432 175 L 432 144"/></g><g transform="translate(-54,-22) scale(1,1)"><path fill="none" stroke="#000000" d="M 432 144 L 520.16455078125 144 L 530.16455078125 154 L 530.16455078125 175 L 432 175 L 432 144 L 432 144" stroke-miterlimit="10"/></g><g transform="translate(-54,-22) scale(1,1)"><path fill="none" stroke="#000000" d="M 520.16455078125 144 L 520.16455078125 154 L 530.16455078125 154 L 520.16455078125 144" stroke-miterlimit="10"/></g><g transform="translate(-54,-22) scale(1,1)"><g><path fill="none" stroke="none"/><text fill="#000000" stroke="none" font-family="Arial" font-size="13px" font-style="normal" font-weight="normal" text-decoration="none" x="437" y="162">HTTP/HTTPS</text></g></g><g transform="translate(-54,-22) scale(1,1)"><path fill="none" stroke="#000000" d="M 488 119 L 484 143" stroke-miterlimit="10" stroke-dasharray="3"/></g></g></svg>