<svg version="1.1" xmlns="http://www.w3.org/2000/svg" xmlns:xlink="http://www.w3.org/1999/xlink" width="572" height="284"><defs/><g><g transform="translate(-118,-54) scale(1,1)"><path fill="#C0C0C0" stroke="none" d="M 135 81 L 676 81 L 676 334 L 135 334" opacity="0.2"/></g><g transform="translate(-118,-54) scale(1,1)"><path fill="#C0C0C0" stroke="none" d="M 135 81 L 145 71 L 686 71 L 676 81" opacity="0.2"/></g><g transform="translate(-118,-54) scale(1,1)"><path fill="#C0C0C0" stroke="none" d="M 686 71 L 676 81 L 676 334 L 686 324" opacity="0.2"/></g><g transform="translate(-118,-54) scale(1,1)"><path fill="#ffffff" stroke="none" d="M 128 74 L 669 74 L 669 327 L 128 327"/></g><g transform="translate(-118,-54) scale(1,1)"><path fill="#ffffff" stroke="none" d="M 128 74 L 138 64 L 679 64 L 669 74"/></g><g transform="translate(-118,-54) scale(1,1)"><path fill="#ffffff" stroke="none" d="M 679 64 L 669 74 L 669 327 L 679 317"/></g><g transform="translate(-118,-54) scale(1,1)"><path fill="none" stroke="#000000" d="M 128 74 L 669 74 L 669 327 L 128 327 L 128 74" stroke-miterlimit="10"/></g><g transform="translate(-118,-54) scale(1,1)"><path fill="none" stroke="#000000" d="M 128 74 L 138 64 L 679 64 L 669 74 L 128 74" stroke-miterlimit="10"/></g><g transform="translate(-118,-54) scale(1,1)"><path fill="none" stroke="#000000" d="M 679 64 L 669 74 L 669 327 L 679 317 L 679 64" stroke-miterlimit="10"/></g><g transform="translate(-118,-54) scale(1,1)"><g><path fill="none" stroke="none"/><text fill="#000000" stroke="none" font-family="Arial" font-size="13px" font-style="normal" font-weight="bold" text-decoration="none" x="382.3818359375" y="93.5">Client</text></g></g><g transform="translate(-118,-54) scale(1,1)"><rect fill="#C0C0C0" stroke="none" x="193" y="127" width="118" height="44" opacity="0.2"/></g><g transform="translate(-118,-54) scale(1,1)"><rect fill="#ffffff" stroke="none" x="186" y="120" width="118" height="44"/></g><g transform="translate(-118,-54) scale(1,1)"><path fill="none" stroke="#000000" d="M 186 120 L 304 120 L 304 164 L 186 164 L 186 120 Z Z" stroke-miterlimit="10"/></g><g transform="translate(-118,-54) scale(1,1)"><rect fill="#ffffff" stroke="none" x="176" y="127" width="20" height="10"/></g><g transform="translate(-118,-54) scale(1,1)"><path fill="none" stroke="#000000" d="M 176 127 L 196 127 L 196 137 L 176 137 L 176 127 Z Z" stroke-miterlimit="10"/></g><g transform="translate(-118,-54) scale(1,1)"><rect fill="#ffffff" stroke="none" x="176" y="147" width="20" height="10"/></g><g transform="translate(-118,-54) scale(1,1)"><path fill="none" stroke="#000000" d="M 176 147 L 196 147 L 196 157 L 176 157 L 176 147 Z Z" stroke-miterlimit="10"/></g><g transform="translate(-118,-54) scale(1,1)"><g><path fill="none" stroke="none"/><text fill="#000000" stroke="none" font-family="Arial" font-size="13px" font-style="normal" font-weight="bold" text-decoration="none" x="210.9873046875" y="139.5">Window Main</text></g></g><g transform="translate(-118,-54) scale(1,1)"><rect fill="#C0C0C0" stroke="none" x="553" y="127" width="98.44091796875" height="44" opacity="0.2"/></g><g transform="translate(-118,-54) scale(1,1)"><rect fill="#ffffff" stroke="none" x="546" y="120" width="98.44091796875" height="44"/></g><g transform="translate(-118,-54) scale(1,1)"><path fill="none" stroke="#000000" d="M 546 120 L 644.44091796875 120 L 644.44091796875 164 L 546 164 L 546 120 Z Z" stroke-miterlimit="10"/></g><g transform="translate(-118,-54) scale(1,1)"><rect fill="#ffffff" stroke="none" x="536" y="127" width="20" height="10"/></g><g transform="translate(-118,-54) scale(1,1)"><path fill="none" stroke="#000000" d="M 536 127 L 556 127 L 556 137 L 536 137 L 536 127 Z Z" stroke-miterlimit="10"/></g><g transform="translate(-118,-54) scale(1,1)"><rect fill="#ffffff" stroke="none" x="536" y="147" width="20" height="10"/></g><g transform="translate(-118,-54) scale(1,1)"><path fill="none" stroke="#000000" d="M 536 147 L 556 147 L 556 157 L 536 157 L 536 147 Z Z" stroke-miterlimit="10"/></g><g transform="translate(-118,-54) scale(1,1)"><g><path fill="none" stroke="none"/><text fill="#000000" stroke="none" font-family="Arial" font-size="13px" font-style="normal" font-weight="bold" text-decoration="none" x="571.681396484375" y="139.5">Window 2</text></g></g><g transform="translate(-118,-54) scale(1,1)"><rect fill="#C0C0C0" stroke="none" x="385" y="127" width="98.44091796875" height="44" opacity="0.2"/></g><g transform="translate(-118,-54) scale(1,1)"><rect fill="#ffffff" stroke="none" x="378" y="120" width="98.44091796875" height="44"/></g><g transform="translate(-118,-54) scale(1,1)"><path fill="none" stroke="#000000" d="M 378 120 L 476.44091796875 120 L 476.44091796875 164 L 378 164 L 378 120 Z Z" stroke-miterlimit="10"/></g><g transform="translate(-118,-54) scale(1,1)"><rect fill="#ffffff" stroke="none" x="368" y="127" width="20" height="10"/></g><g transform="translate(-118,-54) scale(1,1)"><path fill="none" stroke="#000000" d="M 368 127 L 388 127 L 388 137 L 368 137 L 368 127 Z Z" stroke-miterlimit="10"/></g><g transform="translate(-118,-54) scale(1,1)"><rect fill="#ffffff" stroke="none" x="368" y="147" width="20" height="10"/></g><g transform="translate(-118,-54) scale(1,1)"><path fill="none" stroke="#000000" d="M 368 147 L 388 147 L 388 157 L 368 157 L 368 147 Z Z" stroke-miterlimit="10"/></g><g transform="translate(-118,-54) scale(1,1)"><g><path fill="none" stroke="none"/><text fill="#000000" stroke="none" font-family="Arial" font-size="13px" font-style="normal" font-weight="bold" text-decoration="none" x="403.681396484375" y="139.5">Window 1</text></g></g><g transform="translate(-118,-54) scale(1,1)"><rect fill="#ffffff" stroke="none" x="152" y="240" width="504" height="64"/></g><g transform="translate(-118,-54) scale(1,1)"><path fill="none" stroke="#000000" d="M 152 240 L 656 240 L 656 304 L 152 304 L 152 240 Z Z" stroke-miterlimit="10"/></g><g transform="translate(-118,-54) scale(1,1)"><g><path fill="none" stroke="none"/><text fill="#000000" stroke="none" font-family="Arial" font-size="20px" font-style="normal" font-weight="normal" text-decoration="none" x="181" y="281">Event Bus</text></g></g><g transform="translate(-118,-54) scale(1,1)"><path fill="none" stroke="#000000" d="M 262 165 L 359.2236328125 261.61181640625" stroke-miterlimit="10"/></g><g transform="translate(-118,-54) scale(1,1)"><g><path fill="none" stroke="none"/><text fill="#000000" stroke="none" font-family="Arial" font-size="13px" font-style="normal" font-weight="normal" text-decoration="none" x="272.5" y="208.5">+Redux Openfin</text></g></g><g transform="translate(-118,-54) scale(1,1)"><path fill="#C0C0C0" stroke="none" d="M 486.2236328125 274.5 C 486.2236328125 268.1487248 491.3723576125 263 497.7236328125 263 C 504.0749080125 263 509.2236328125 268.1487248 509.2236328125 274.5 C 509.2236328125 280.8512752 504.0749080125 286 497.7236328125 286 C 491.3723576125 286 486.2236328125 280.8512752 486.2236328125 274.5 Z" opacity="0.2"/></g><g transform="translate(-118,-54) scale(1,1)"><path fill="#ffffff" stroke="none" d="M 479.2236328125 267.5 C 479.2236328125 261.1487248 484.3723576125 256 490.7236328125 256 C 497.0749080125 256 502.2236328125 261.1487248 502.2236328125 267.5 C 502.2236328125 273.8512752 497.0749080125 279 490.7236328125 279 C 484.3723576125 279 479.2236328125 273.8512752 479.2236328125 267.5 Z"/></g><g transform="translate(-118,-54) scale(1,1)"><path fill="none" stroke="#000000" d="M 479.2236328125 267.5 C 479.2236328125 261.1487248 484.3723576125 256 490.7236328125 256 C 497.0749080125 256 502.2236328125 261.1487248 502.2236328125 267.5 C 502.2236328125 273.8512752 497.0749080125 279 490.7236328125 279 C 484.3723576125 279 479.2236328125 273.8512752 479.2236328125 267.5 Z" stroke-miterlimit="10"/></g><g transform="translate(-118,-54) scale(1,1)"><g><path fill="none" stroke="none"/><text fill="#000000" stroke="none" font-family="Arial" font-size="13px" font-style="normal" font-weight="bold" text-decoration="none" x="471.58544921875" y="298.5">Comm</text></g></g><g transform="translate(-118,-54) scale(1,1)"><path fill="#C0C0C0" stroke="none" d="M 590.2236328125 274.5 C 590.2236328125 268.1487248 595.3723576125 263 601.7236328125 263 C 608.0749080125 263 613.2236328125 268.1487248 613.2236328125 274.5 C 613.2236328125 280.8512752 608.0749080125 286 601.7236328125 286 C 595.3723576125 286 590.2236328125 280.8512752 590.2236328125 274.5 Z" opacity="0.2"/></g><g transform="translate(-118,-54) scale(1,1)"><path fill="#ffffff" stroke="none" d="M 583.2236328125 267.5 C 583.2236328125 261.1487248 588.3723576125 256 594.7236328125 256 C 601.0749080125 256 606.2236328125 261.1487248 606.2236328125 267.5 C 606.2236328125 273.8512752 601.0749080125 279 594.7236328125 279 C 588.3723576125 279 583.2236328125 273.8512752 583.2236328125 267.5 Z"/></g><g transform="translate(-118,-54) scale(1,1)"><path fill="none" stroke="#000000" d="M 583.2236328125 267.5 C 583.2236328125 261.1487248 588.3723576125 256 594.7236328125 256 C 601.0749080125 256 606.2236328125 261.1487248 606.2236328125 267.5 C 606.2236328125 273.8512752 601.0749080125 279 594.7236328125 279 C 588.3723576125 279 583.2236328125 273.8512752 583.2236328125 267.5 Z" stroke-miterlimit="10"/></g><g transform="translate(-118,-54) scale(1,1)"><g><path fill="none" stroke="none"/><text fill="#000000" stroke="none" font-family="Arial" font-size="13px" font-style="normal" font-weight="bold" text-decoration="none" x="575.58544921875" y="298.5">Comm</text></g></g><g transform="translate(-118,-54) scale(1,1)"><path fill="#C0C0C0" stroke="none" d="M 366.2236328125 274.5 C 366.2236328125 268.1487248 371.3723576125 263 377.7236328125 263 C 384.0749080125 263 389.2236328125 268.1487248 389.2236328125 274.5 C 389.2236328125 280.8512752 384.0749080125 286 377.7236328125 286 C 371.3723576125 286 366.2236328125 280.8512752 366.2236328125 274.5 Z" opacity="0.2"/></g><g transform="translate(-118,-54) scale(1,1)"><path fill="#ffffff" stroke="none" d="M 359.2236328125 267.5 C 359.2236328125 261.1487248 364.3723576125 256 370.7236328125 256 C 377.0749080125 256 382.2236328125 261.1487248 382.2236328125 267.5 C 382.2236328125 273.8512752 377.0749080125 279 370.7236328125 279 C 364.3723576125 279 359.2236328125 273.8512752 359.2236328125 267.5 Z"/></g><g transform="translate(-118,-54) scale(1,1)"><path fill="none" stroke="#000000" d="M 359.2236328125 267.5 C 359.2236328125 261.1487248 364.3723576125 256 370.7236328125 256 C 377.0749080125 256 382.2236328125 261.1487248 382.2236328125 267.5 C 382.2236328125 273.8512752 377.0749080125 279 370.7236328125 279 C 364.3723576125 279 359.2236328125 273.8512752 359.2236328125 267.5 Z" stroke-miterlimit="10"/></g><g transform="translate(-118,-54) scale(1,1)"><g><path fill="none" stroke="none"/><text fill="#000000" stroke="none" font-family="Arial" font-size="13px" font-style="normal" font-weight="bold" text-decoration="none" x="351.58544921875" y="298.5">Comm</text></g></g><g transform="translate(-118,-54) scale(1,1)"><path fill="none" stroke="#000000" d="M 433 165 L 479.2236328125 256.2236328125" stroke-miterlimit="10"/></g><g transform="translate(-118,-54) scale(1,1)"><g><path fill="none" stroke="none"/><text fill="#000000" stroke="none" font-family="Arial" font-size="13px" font-style="normal" font-weight="normal" text-decoration="none" x="421.5" y="209.5">+Redux Openfin</text></g></g><g transform="translate(-118,-54) scale(1,1)"><path fill="none" stroke="#000000" d="M 591 165 L 593.0833333333334 256" stroke-miterlimit="10"/></g><g transform="translate(-118,-54) scale(1,1)"><g><path fill="none" stroke="none"/><text fill="#000000" stroke="none" font-family="Arial" font-size="13px" font-style="normal" font-weight="normal" text-decoration="none" x="558.5" y="215.5">+Redux Openfin</text></g></g></g></svg>