<svg version="1.1" xmlns="http://www.w3.org/2000/svg" xmlns:xlink="http://www.w3.org/1999/xlink" width="593" height="230"><defs/><g><g transform="translate(-73,-28) scale(1,1)"><path fill="#C0C0C0" stroke="none" d="M 90 55 L 652 55 L 652 254 L 90 254" opacity="0.2"/></g><g transform="translate(-73,-28) scale(1,1)"><path fill="#C0C0C0" stroke="none" d="M 90 55 L 100 45 L 662 45 L 652 55" opacity="0.2"/></g><g transform="translate(-73,-28) scale(1,1)"><path fill="#C0C0C0" stroke="none" d="M 662 45 L 652 55 L 652 254 L 662 244" opacity="0.2"/></g><g transform="translate(-73,-28) scale(1,1)"><path fill="#ffffff" stroke="none" d="M 83 48 L 645 48 L 645 247 L 83 247"/></g><g transform="translate(-73,-28) scale(1,1)"><path fill="#ffffff" stroke="none" d="M 83 48 L 93 38 L 655 38 L 645 48"/></g><g transform="translate(-73,-28) scale(1,1)"><path fill="#ffffff" stroke="none" d="M 655 38 L 645 48 L 645 247 L 655 237"/></g><g transform="translate(-73,-28) scale(1,1)"><path fill="none" stroke="#000000" d="M 83 48 L 645 48 L 645 247 L 83 247 L 83 48" stroke-miterlimit="10"/></g><g transform="translate(-73,-28) scale(1,1)"><path fill="none" stroke="#000000" d="M 83 48 L 93 38 L 655 38 L 645 48 L 83 48" stroke-miterlimit="10"/></g><g transform="translate(-73,-28) scale(1,1)"><path fill="none" stroke="#000000" d="M 655 38 L 645 48 L 645 247 L 655 237 L 655 38" stroke-miterlimit="10"/></g><g transform="translate(-73,-28) scale(1,1)"><g><path fill="none" stroke="none"/><text fill="#000000" stroke="none" font-family="Arial" font-size="13px" font-style="normal" font-weight="bold" text-decoration="none" x="347.8818359375" y="67.5">Client</text></g></g><g transform="translate(-73,-28) scale(1,1)"><rect fill="#C0C0C0" stroke="none" x="545" y="95" width="102" height="44" opacity="0.2"/></g><g transform="translate(-73,-28) scale(1,1)"><rect fill="#ffffff" stroke="none" x="538" y="88" width="102" height="44"/></g><g transform="translate(-73,-28) scale(1,1)"><path fill="none" stroke="#000000" d="M 538 88 L 640 88 L 640 132 L 538 132 L 538 88 Z Z" stroke-miterlimit="10"/></g><g transform="translate(-73,-28) scale(1,1)"><rect fill="#ffffff" stroke="none" x="528" y="95" width="20" height="10"/></g><g transform="translate(-73,-28) scale(1,1)"><path fill="none" stroke="#000000" d="M 528 95 L 548 95 L 548 105 L 528 105 L 528 95 Z Z" stroke-miterlimit="10"/></g><g transform="translate(-73,-28) scale(1,1)"><rect fill="#ffffff" stroke="none" x="528" y="115" width="20" height="10"/></g><g transform="translate(-73,-28) scale(1,1)"><path fill="none" stroke="#000000" d="M 528 115 L 548 115 L 548 125 L 528 125 L 528 115 Z Z" stroke-miterlimit="10"/></g><g transform="translate(-73,-28) scale(1,1)"><g><path fill="none" stroke="none"/><text fill="#000000" stroke="none" font-family="Arial" font-size="13px" font-style="normal" font-weight="bold" text-decoration="none" x="562.563232421875" y="107.5">StaticPage</text></g></g><g transform="translate(-73,-28) scale(1,1)"><rect fill="#C0C0C0" stroke="none" x="116" y="93" width="294" height="136" opacity="0.2"/></g><g transform="translate(-73,-28) scale(1,1)"><rect fill="#ffffff" stroke="none" x="109" y="86" width="294" height="136"/></g><g transform="translate(-73,-28) scale(1,1)"><path fill="none" stroke="#000000" d="M 109 86 L 403 86 L 403 222 L 109 222 L 109 86 Z Z" stroke-miterlimit="10"/></g><g transform="translate(-73,-28) scale(1,1)"><rect fill="#ffffff" stroke="none" x="99" y="93" width="20" height="10"/></g><g transform="translate(-73,-28) scale(1,1)"><path fill="none" stroke="#000000" d="M 99 93 L 119 93 L 119 103 L 99 103 L 99 93 Z Z" stroke-miterlimit="10"/></g><g transform="translate(-73,-28) scale(1,1)"><rect fill="#ffffff" stroke="none" x="99" y="113" width="20" height="10"/></g><g transform="translate(-73,-28) scale(1,1)"><path fill="none" stroke="#000000" d="M 99 113 L 119 113 L 119 123 L 99 123 L 99 113 Z Z" stroke-miterlimit="10"/></g><g transform="translate(-73,-28) scale(1,1)"><g><path fill="none" stroke="none"/><text fill="#000000" stroke="none" font-family="Arial" font-size="13px" font-style="normal" font-weight="bold" text-decoration="none" x="220.905029296875" y="105.5">OpenFin Rvm</text></g></g><g transform="translate(-73,-28) scale(1,1)"><rect fill="#C0C0C0" stroke="none" x="148" y="125" width="237.1435546875" height="44" opacity="0.2"/></g><g transform="translate(-73,-28) scale(1,1)"><rect fill="#ffffff" stroke="none" x="141" y="118" width="237.1435546875" height="44"/></g><g transform="translate(-73,-28) scale(1,1)"><path fill="none" stroke="#000000" d="M 141 118 L 378.1435546875 118 L 378.1435546875 162 L 141 162 L 141 118 Z Z" stroke-miterlimit="10"/></g><g transform="translate(-73,-28) scale(1,1)"><rect fill="#ffffff" stroke="none" x="131" y="125" width="20" height="10"/></g><g transform="translate(-73,-28) scale(1,1)"><path fill="none" stroke="#000000" d="M 131 125 L 151 125 L 151 135 L 131 135 L 131 125 Z Z" stroke-miterlimit="10"/></g><g transform="translate(-73,-28) scale(1,1)"><rect fill="#ffffff" stroke="none" x="131" y="145" width="20" height="10"/></g><g transform="translate(-73,-28) scale(1,1)"><path fill="none" stroke="#000000" d="M 131 145 L 151 145 L 151 155 L 131 155 L 131 145 Z Z" stroke-miterlimit="10"/></g><g transform="translate(-73,-28) scale(1,1)"><g><path fill="none" stroke="none"/><text fill="#000000" stroke="none" font-family="Arial" font-size="13px" font-style="normal" font-weight="bold" text-decoration="none" x="162.326904296875" y="137.5">Embedded Browser Based Window</text></g></g><g transform="translate(-73,-28) scale(1,1)"><rect fill="#C0C0C0" stroke="none" x="148" y="173" width="238" height="44" opacity="0.2"/></g><g transform="translate(-73,-28) scale(1,1)"><rect fill="#ffffff" stroke="none" x="141" y="166" width="238" height="44"/></g><g transform="translate(-73,-28) scale(1,1)"><path fill="none" stroke="#000000" d="M 141 166 L 379 166 L 379 210 L 141 210 L 141 166 Z Z" stroke-miterlimit="10"/></g><g transform="translate(-73,-28) scale(1,1)"><rect fill="#ffffff" stroke="none" x="131" y="173" width="20" height="10"/></g><g transform="translate(-73,-28) scale(1,1)"><path fill="none" stroke="#000000" d="M 131 173 L 151 173 L 151 183 L 131 183 L 131 173 Z Z" stroke-miterlimit="10"/></g><g transform="translate(-73,-28) scale(1,1)"><rect fill="#ffffff" stroke="none" x="131" y="193" width="20" height="10"/></g><g transform="translate(-73,-28) scale(1,1)"><path fill="none" stroke="#000000" d="M 131 193 L 151 193 L 151 203 L 131 203 L 131 193 Z Z" stroke-miterlimit="10"/></g><g transform="translate(-73,-28) scale(1,1)"><g><path fill="none" stroke="none"/><text fill="#000000" stroke="none" font-family="Arial" font-size="13px" font-style="normal" font-weight="bold" text-decoration="none" x="162.755126953125" y="185.5">Embedded Browser Based Window</text></g></g><g transform="translate(-73,-28) scale(1,1)"><path fill="none" stroke="#000000" d="M 404 134 L 527 118" stroke-miterlimit="10" stroke-dasharray="3"/></g><g transform="translate(-73,-28) scale(1,1)"><path fill="none" stroke="#000000" d="M 517.4652358520664 123.48527780912498 L 527 118 L 516.3792264784573 115.1365807495061" stroke-miterlimit="10"/></g><g transform="translate(-73,-28) scale(1,1)"><path fill="#ffffff" stroke="none" d="M 432 176 L 520.16455078125 176 L 530.16455078125 186 L 530.16455078125 207 L 432 207 L 432 176"/></g><g transform="translate(-73,-28) scale(1,1)"><path fill="none" stroke="#000000" d="M 432 176 L 520.16455078125 176 L 530.16455078125 186 L 530.16455078125 207 L 432 207 L 432 176 L 432 176" stroke-miterlimit="10"/></g><g transform="translate(-73,-28) scale(1,1)"><path fill="none" stroke="#000000" d="M 520.16455078125 176 L 520.16455078125 186 L 530.16455078125 186 L 520.16455078125 176" stroke-miterlimit="10"/></g><g transform="translate(-73,-28) scale(1,1)"><g><path fill="none" stroke="none"/><text fill="#000000" stroke="none" font-family="Arial" font-size="13px" font-style="normal" font-weight="normal" text-decoration="none" x="437" y="194">HTTP/HTTPS</text></g></g><g transform="translate(-73,-28) scale(1,1)"><path fill="none" stroke="#000000" d="M 465 126 L 477 175" stroke-miterlimit="10" stroke-dasharray="3"/></g></g></svg>